<svg xmlns="http://www.w3.org/2000/svg" width="21.482" height="21.482" viewBox="0 0 21.482 21.482">
  <g id="surface1899" transform="translate(-3 -3)">
    <path id="Path_13729" data-name="Path 13729" d="M4.193,3A1.2,1.2,0,0,0,3,4.193V6.58A1.2,1.2,0,0,0,4.193,7.774H6.58A1.2,1.2,0,0,0,7.774,6.58V4.193A1.2,1.2,0,0,0,6.58,3Zm8.354,0a1.2,1.2,0,0,0-1.193,1.193V6.58a1.2,1.2,0,0,0,1.193,1.193h2.387A1.2,1.2,0,0,0,16.128,6.58V4.193A1.2,1.2,0,0,0,14.935,3ZM20.9,3a1.2,1.2,0,0,0-1.193,1.193V6.58A1.2,1.2,0,0,0,20.9,7.774h2.387A1.2,1.2,0,0,0,24.482,6.58V4.193A1.2,1.2,0,0,0,23.289,3ZM4.193,11.354A1.2,1.2,0,0,0,3,12.548v2.387a1.2,1.2,0,0,0,1.193,1.193H6.58a1.2,1.2,0,0,0,1.193-1.193V12.548A1.2,1.2,0,0,0,6.58,11.354Zm8.354,0a1.2,1.2,0,0,0-1.193,1.193v2.387a1.2,1.2,0,0,0,1.193,1.193h2.387a1.2,1.2,0,0,0,1.193-1.193V12.548a1.2,1.2,0,0,0-1.193-1.193Zm8.354,0a1.2,1.2,0,0,0-1.193,1.193v2.387A1.2,1.2,0,0,0,20.9,16.128h2.387a1.2,1.2,0,0,0,1.193-1.193V12.548a1.2,1.2,0,0,0-1.193-1.193ZM4.193,19.709A1.2,1.2,0,0,0,3,20.9v2.387a1.2,1.2,0,0,0,1.193,1.193H6.58a1.2,1.2,0,0,0,1.193-1.193V20.9A1.2,1.2,0,0,0,6.58,19.709Zm8.354,0A1.2,1.2,0,0,0,11.354,20.9v2.387a1.2,1.2,0,0,0,1.193,1.193h2.387a1.2,1.2,0,0,0,1.193-1.193V20.9a1.2,1.2,0,0,0-1.193-1.193Zm8.354,0A1.2,1.2,0,0,0,19.709,20.9v2.387A1.2,1.2,0,0,0,20.9,24.482h2.387a1.2,1.2,0,0,0,1.193-1.193V20.9a1.2,1.2,0,0,0-1.193-1.193Zm0,0" fill="#535353"/>
  </g>
</svg>
