<svg xmlns="http://www.w3.org/2000/svg" width="54.122" height="45.102" viewBox="0 0 54.122 45.102">
  <path id="icons8-upload_to_cloud" d="M46.875,20.05c.009-.206.031-.408.031-.617a14.425,14.425,0,0,0-27.283-6.547A8.961,8.961,0,0,0,7.339,20.017a10.82,10.82,0,0,0,3.485,21.064H43.3A10.819,10.819,0,0,0,46.875,20.05Zm-26.5,5.324,5.412-5.412a1.8,1.8,0,0,1,2.551,0l5.412,5.412A1.8,1.8,0,0,1,31.2,27.924l-2.333-2.333V48.3a1.8,1.8,0,0,1-3.608,0V25.592l-2.333,2.333a1.8,1.8,0,1,1-2.551-2.551Z" transform="translate(0 -5)" fill="#3c3c3c"/>
</svg>
